<mxfile host="app.diagrams.net" modified="2023-07-27T01:00:31.882Z" agent="Mozilla/5.0 (Macintosh; Intel Mac OS X 10_15_7) AppleWebKit/605.1.15 (KHTML, like Gecko) Version/15.1 Safari/605.1.15" etag="9m_OcqH9MhEC38u1UHQp" version="21.6.5" type="device">
  <diagram id="C5RBs43oDa-KdzZeNtuy" name="Page-1">
    <mxGraphModel dx="1106" dy="702" grid="1" gridSize="10" guides="1" tooltips="1" connect="1" arrows="1" fold="1" page="1" pageScale="1" pageWidth="3300" pageHeight="4681" math="0" shadow="0">
      <root>
        <mxCell id="WIyWlLk6GJQsqaUBKTNV-0" />
        <mxCell id="WIyWlLk6GJQsqaUBKTNV-1" parent="WIyWlLk6GJQsqaUBKTNV-0" />
        <mxCell id="u2KNT-bkNQCC0Z62DxVK-24" value="&lt;b style=&quot;border-color: var(--border-color);&quot;&gt;Example:&lt;br style=&quot;border-color: var(--border-color);&quot;&gt;&lt;/b&gt;&amp;lt;s, v, o, m&amp;gt;&lt;br style=&quot;border-color: var(--border-color);&quot;&gt;1. &amp;lt;I, am, rich&amp;gt;&lt;br style=&quot;border-color: var(--border-color);&quot;&gt;2. &amp;lt;I went, mall, buy clothes for my girlfriend&amp;gt;" style="ellipse;whiteSpace=wrap;html=1;aspect=fixed;fillColor=#d5e8d4;strokeColor=#82b366;" parent="WIyWlLk6GJQsqaUBKTNV-1" vertex="1">
          <mxGeometry x="644" y="1787.5" width="125" height="125" as="geometry" />
        </mxCell>
        <mxCell id="u2KNT-bkNQCC0Z62DxVK-22" value="&lt;b style=&quot;border-color: var(--border-color);&quot;&gt;Example&lt;/b&gt;: Example queries in repo" style="ellipse;whiteSpace=wrap;html=1;fillColor=#d5e8d4;strokeColor=#82b366;" parent="WIyWlLk6GJQsqaUBKTNV-1" vertex="1">
          <mxGeometry x="649" y="1690" width="120" height="80" as="geometry" />
        </mxCell>
        <mxCell id="u2KNT-bkNQCC0Z62DxVK-17" value="&lt;b style=&quot;border-color: var(--border-color);&quot;&gt;Task&lt;/b&gt;: Construct structured representation as a list" style="rounded=0;whiteSpace=wrap;html=1;fillColor=#fff2cc;strokeColor=#d6b656;" parent="WIyWlLk6GJQsqaUBKTNV-1" vertex="1">
          <mxGeometry x="450" y="1820" width="160" height="60" as="geometry" />
        </mxCell>
        <mxCell id="u2KNT-bkNQCC0Z62DxVK-6" value="" style="rounded=0;whiteSpace=wrap;html=1;fillColor=#f5f5f5;strokeColor=#666666;fontColor=#333333;" parent="WIyWlLk6GJQsqaUBKTNV-1" vertex="1">
          <mxGeometry x="742.5" y="1570" width="150" height="60" as="geometry" />
        </mxCell>
        <mxCell id="u2KNT-bkNQCC0Z62DxVK-3" value="&lt;b style=&quot;border-color: var(--border-color);&quot;&gt;Goal 2: Style regeneration&lt;/b&gt;" style="rounded=0;whiteSpace=wrap;html=1;fillColor=#ffe6cc;strokeColor=#d79b00;" parent="WIyWlLk6GJQsqaUBKTNV-1" vertex="1">
          <mxGeometry x="455" y="1570" width="120" height="60" as="geometry" />
        </mxCell>
        <mxCell id="u2KNT-bkNQCC0Z62DxVK-1" value="&lt;font style=&quot;font-size: 16px;&quot;&gt;Event text: I am really rich. I went to the mall to buy some clothes for my friend Carl.&lt;/font&gt;" style="text;html=1;strokeColor=none;fillColor=none;align=center;verticalAlign=middle;whiteSpace=wrap;rounded=0;" parent="WIyWlLk6GJQsqaUBKTNV-1" vertex="1">
          <mxGeometry x="440" y="1520" width="630" height="30" as="geometry" />
        </mxCell>
        <mxCell id="u2KNT-bkNQCC0Z62DxVK-4" value="" style="shape=flexArrow;endArrow=classic;html=1;rounded=0;" parent="WIyWlLk6GJQsqaUBKTNV-1" edge="1">
          <mxGeometry width="50" height="50" relative="1" as="geometry">
            <mxPoint x="610" y="1600" as="sourcePoint" />
            <mxPoint x="710" y="1600" as="targetPoint" />
          </mxGeometry>
        </mxCell>
        <mxCell id="u2KNT-bkNQCC0Z62DxVK-5" value="&lt;b&gt;Naive Baseline:&lt;/b&gt; Query ChatGPT to regenerate" style="text;html=1;strokeColor=none;fillColor=none;align=center;verticalAlign=middle;whiteSpace=wrap;rounded=0;" parent="WIyWlLk6GJQsqaUBKTNV-1" vertex="1">
          <mxGeometry x="732.5" y="1585" width="160" height="30" as="geometry" />
        </mxCell>
        <mxCell id="u2KNT-bkNQCC0Z62DxVK-7" value="&lt;b style=&quot;border-color: var(--border-color);&quot;&gt;Task&lt;/b&gt;: Query GPT-3 for structured repreresentation of events" style="rounded=0;whiteSpace=wrap;html=1;fillColor=#fff2cc;strokeColor=#d6b656;" parent="WIyWlLk6GJQsqaUBKTNV-1" vertex="1">
          <mxGeometry x="455" y="1700" width="175" height="60" as="geometry" />
        </mxCell>
        <mxCell id="u2KNT-bkNQCC0Z62DxVK-10" value="" style="shape=flexArrow;endArrow=classic;html=1;rounded=0;" parent="WIyWlLk6GJQsqaUBKTNV-1" edge="1">
          <mxGeometry width="50" height="50" relative="1" as="geometry">
            <mxPoint x="520" y="1650" as="sourcePoint" />
            <mxPoint x="520" y="1690" as="targetPoint" />
          </mxGeometry>
        </mxCell>
        <mxCell id="u2KNT-bkNQCC0Z62DxVK-11" value="" style="shape=flexArrow;endArrow=classic;html=1;rounded=0;" parent="WIyWlLk6GJQsqaUBKTNV-1" edge="1">
          <mxGeometry width="50" height="50" relative="1" as="geometry">
            <mxPoint x="584" y="1640" as="sourcePoint" />
            <mxPoint x="840" y="1690" as="targetPoint" />
          </mxGeometry>
        </mxCell>
        <mxCell id="u2KNT-bkNQCC0Z62DxVK-12" value="&lt;b style=&quot;border-color: var(--border-color);&quot;&gt;Task&lt;/b&gt;: Query GPT-3 for structured repreresentation of characters" style="rounded=0;whiteSpace=wrap;html=1;fillColor=#fff2cc;strokeColor=#d6b656;" parent="WIyWlLk6GJQsqaUBKTNV-1" vertex="1">
          <mxGeometry x="850" y="1700" width="190" height="60" as="geometry" />
        </mxCell>
        <mxCell id="u2KNT-bkNQCC0Z62DxVK-15" value="" style="shape=flexArrow;endArrow=classic;html=1;rounded=0;" parent="WIyWlLk6GJQsqaUBKTNV-1" edge="1">
          <mxGeometry width="50" height="50" relative="1" as="geometry">
            <mxPoint x="520" y="1770" as="sourcePoint" />
            <mxPoint x="520" y="1810" as="targetPoint" />
          </mxGeometry>
        </mxCell>
        <mxCell id="u2KNT-bkNQCC0Z62DxVK-23" value="" style="endArrow=classic;html=1;rounded=0;exitX=1;exitY=0.5;exitDx=0;exitDy=0;entryX=0;entryY=0.5;entryDx=0;entryDy=0;" parent="WIyWlLk6GJQsqaUBKTNV-1" source="u2KNT-bkNQCC0Z62DxVK-7" target="u2KNT-bkNQCC0Z62DxVK-22" edge="1">
          <mxGeometry width="50" height="50" relative="1" as="geometry">
            <mxPoint x="760" y="1660" as="sourcePoint" />
            <mxPoint x="810" y="1610" as="targetPoint" />
          </mxGeometry>
        </mxCell>
        <mxCell id="u2KNT-bkNQCC0Z62DxVK-26" value="" style="shape=flexArrow;endArrow=classic;html=1;rounded=0;" parent="WIyWlLk6GJQsqaUBKTNV-1" edge="1">
          <mxGeometry width="50" height="50" relative="1" as="geometry">
            <mxPoint x="517.5" y="1900" as="sourcePoint" />
            <mxPoint x="460" y="1940" as="targetPoint" />
          </mxGeometry>
        </mxCell>
        <mxCell id="u2KNT-bkNQCC0Z62DxVK-28" value="&lt;b&gt;Task:&lt;/b&gt; Provide list of events in prompt" style="rounded=0;whiteSpace=wrap;html=1;fillColor=#fff2cc;strokeColor=#d6b656;" parent="WIyWlLk6GJQsqaUBKTNV-1" vertex="1">
          <mxGeometry x="360" y="1950" width="120" height="50" as="geometry" />
        </mxCell>
        <mxCell id="u2KNT-bkNQCC0Z62DxVK-29" value="" style="shape=flexArrow;endArrow=classic;html=1;rounded=0;" parent="WIyWlLk6GJQsqaUBKTNV-1" edge="1">
          <mxGeometry width="50" height="50" relative="1" as="geometry">
            <mxPoint x="440" y="1849.5" as="sourcePoint" />
            <mxPoint x="400" y="1850" as="targetPoint" />
          </mxGeometry>
        </mxCell>
        <mxCell id="u2KNT-bkNQCC0Z62DxVK-30" value="&lt;b style=&quot;border-color: var(--border-color);&quot;&gt;Note&lt;/b&gt;: Considered (and implemented) as event graph, hard to see advantage other than comparison to other methods." style="rounded=0;whiteSpace=wrap;html=1;fillColor=#dae8fc;strokeColor=#6c8ebf;" parent="WIyWlLk6GJQsqaUBKTNV-1" vertex="1">
          <mxGeometry x="150" y="1819" width="240" height="58" as="geometry" />
        </mxCell>
        <mxCell id="u2KNT-bkNQCC0Z62DxVK-32" value="" style="shape=flexArrow;endArrow=classic;html=1;rounded=0;" parent="WIyWlLk6GJQsqaUBKTNV-1" edge="1">
          <mxGeometry width="50" height="50" relative="1" as="geometry">
            <mxPoint x="527.5" y="1900" as="sourcePoint" />
            <mxPoint x="580" y="1940" as="targetPoint" />
          </mxGeometry>
        </mxCell>
        <mxCell id="u2KNT-bkNQCC0Z62DxVK-33" value="&lt;b&gt;Task:&lt;/b&gt; Compare list of events with regenerated list of events (Similarity task)" style="rounded=0;whiteSpace=wrap;html=1;fillColor=#fff2cc;strokeColor=#d6b656;" parent="WIyWlLk6GJQsqaUBKTNV-1" vertex="1">
          <mxGeometry x="550" y="1950" width="150" height="50" as="geometry" />
        </mxCell>
        <mxCell id="u2KNT-bkNQCC0Z62DxVK-35" value="&lt;b&gt;Goal 1: Story similarity&lt;/b&gt;" style="rounded=0;whiteSpace=wrap;html=1;fillColor=#ffe6cc;strokeColor=#d79b00;" parent="WIyWlLk6GJQsqaUBKTNV-1" vertex="1">
          <mxGeometry x="450" y="840" width="120" height="60" as="geometry" />
        </mxCell>
        <mxCell id="u2KNT-bkNQCC0Z62DxVK-37" value="" style="shape=flexArrow;endArrow=classic;html=1;rounded=0;" parent="WIyWlLk6GJQsqaUBKTNV-1" edge="1">
          <mxGeometry width="50" height="50" relative="1" as="geometry">
            <mxPoint x="590" y="870" as="sourcePoint" />
            <mxPoint x="660" y="870" as="targetPoint" />
          </mxGeometry>
        </mxCell>
        <mxCell id="u2KNT-bkNQCC0Z62DxVK-38" value="&lt;div style=&quot;text-align: left;&quot;&gt;&lt;span style=&quot;background-color: initial;&quot;&gt;&lt;b&gt;Naive Baseline:&amp;nbsp;&lt;/b&gt;&lt;/span&gt;&lt;/div&gt;&lt;span style=&quot;background-color: initial;&quot;&gt;&lt;div style=&quot;text-align: left;&quot;&gt;&lt;span style=&quot;background-color: initial;&quot;&gt;Query ChatGPT&lt;/span&gt;&lt;/div&gt;SentenceBERT semantic similarity&lt;br&gt;&lt;/span&gt;" style="rounded=0;whiteSpace=wrap;html=1;fillColor=#f5f5f5;fontColor=#333333;strokeColor=#666666;" parent="WIyWlLk6GJQsqaUBKTNV-1" vertex="1">
          <mxGeometry x="677.5" y="840" width="225" height="60" as="geometry" />
        </mxCell>
        <mxCell id="u2KNT-bkNQCC0Z62DxVK-39" value="" style="shape=flexArrow;endArrow=classic;html=1;rounded=0;" parent="WIyWlLk6GJQsqaUBKTNV-1" edge="1">
          <mxGeometry width="50" height="50" relative="1" as="geometry">
            <mxPoint x="910" y="1599.5" as="sourcePoint" />
            <mxPoint x="990" y="1600" as="targetPoint" />
          </mxGeometry>
        </mxCell>
        <mxCell id="u2KNT-bkNQCC0Z62DxVK-41" value="&lt;div style=&quot;&quot;&gt;&lt;span style=&quot;background-color: initial;&quot;&gt;&lt;b&gt;Evaluation&lt;/b&gt;: Human eval on:&lt;/span&gt;&lt;/div&gt;&lt;ul&gt;&lt;li style=&quot;text-align: left;&quot;&gt;Style Performance&lt;/li&gt;&lt;li style=&quot;text-align: left;&quot;&gt;Story similarity&amp;nbsp;&lt;/li&gt;&lt;li style=&quot;text-align: left;&quot;&gt;Interestingness&lt;/li&gt;&lt;/ul&gt;" style="rounded=0;whiteSpace=wrap;html=1;align=center;fillColor=#f5f5f5;strokeColor=#666666;fontColor=#333333;" parent="WIyWlLk6GJQsqaUBKTNV-1" vertex="1">
          <mxGeometry x="1020" y="1570" width="170" height="90" as="geometry" />
        </mxCell>
        <mxCell id="u2KNT-bkNQCC0Z62DxVK-42" value="&lt;b&gt;Example&lt;/b&gt;: Example queries in repo" style="ellipse;whiteSpace=wrap;html=1;fillColor=#d5e8d4;strokeColor=#82b366;" parent="WIyWlLk6GJQsqaUBKTNV-1" vertex="1">
          <mxGeometry x="1100" y="1690" width="110" height="80" as="geometry" />
        </mxCell>
        <mxCell id="u2KNT-bkNQCC0Z62DxVK-47" value="" style="endArrow=classic;html=1;rounded=0;exitX=1;exitY=0.5;exitDx=0;exitDy=0;" parent="WIyWlLk6GJQsqaUBKTNV-1" source="u2KNT-bkNQCC0Z62DxVK-17" edge="1">
          <mxGeometry width="50" height="50" relative="1" as="geometry">
            <mxPoint x="650" y="1870" as="sourcePoint" />
            <mxPoint x="640" y="1850" as="targetPoint" />
          </mxGeometry>
        </mxCell>
        <mxCell id="u2KNT-bkNQCC0Z62DxVK-52" value="" style="endArrow=classic;html=1;rounded=0;exitX=1;exitY=0.5;exitDx=0;exitDy=0;entryX=0;entryY=0.5;entryDx=0;entryDy=0;" parent="WIyWlLk6GJQsqaUBKTNV-1" source="u2KNT-bkNQCC0Z62DxVK-12" target="u2KNT-bkNQCC0Z62DxVK-42" edge="1">
          <mxGeometry width="50" height="50" relative="1" as="geometry">
            <mxPoint x="650" y="1910" as="sourcePoint" />
            <mxPoint x="700" y="1860" as="targetPoint" />
          </mxGeometry>
        </mxCell>
        <mxCell id="u2KNT-bkNQCC0Z62DxVK-53" value="" style="shape=flexArrow;endArrow=classic;html=1;rounded=0;" parent="WIyWlLk6GJQsqaUBKTNV-1" edge="1">
          <mxGeometry width="50" height="50" relative="1" as="geometry">
            <mxPoint x="950" y="1770" as="sourcePoint" />
            <mxPoint x="950" y="1810" as="targetPoint" />
          </mxGeometry>
        </mxCell>
        <mxCell id="u2KNT-bkNQCC0Z62DxVK-54" value="&lt;b&gt;Task&lt;/b&gt;: Construct structured representation as graph or dict + list" style="rounded=0;whiteSpace=wrap;html=1;fillColor=#fff2cc;strokeColor=#d6b656;" parent="WIyWlLk6GJQsqaUBKTNV-1" vertex="1">
          <mxGeometry x="850.25" y="1817" width="199.75" height="60" as="geometry" />
        </mxCell>
        <mxCell id="u2KNT-bkNQCC0Z62DxVK-55" value="&lt;b&gt;Example&lt;/b&gt;: &lt;br&gt;Dict of char attributes: &lt;br&gt;{I: rich}&lt;br&gt;Dict of char relationships:&lt;br&gt;[Me, Carl, friend]" style="ellipse;whiteSpace=wrap;html=1;aspect=fixed;fillColor=#d5e8d4;strokeColor=#82b366;" parent="WIyWlLk6GJQsqaUBKTNV-1" vertex="1">
          <mxGeometry x="1085" y="1780" width="140" height="140" as="geometry" />
        </mxCell>
        <mxCell id="u2KNT-bkNQCC0Z62DxVK-56" value="" style="shape=flexArrow;endArrow=classic;html=1;rounded=0;" parent="WIyWlLk6GJQsqaUBKTNV-1" edge="1">
          <mxGeometry width="50" height="50" relative="1" as="geometry">
            <mxPoint x="1230" y="1850" as="sourcePoint" />
            <mxPoint x="1270" y="1850" as="targetPoint" />
          </mxGeometry>
        </mxCell>
        <mxCell id="u2KNT-bkNQCC0Z62DxVK-57" value="&lt;b&gt;Note&lt;/b&gt;: Easier to represent as graph (nodes are chars + node attributes, vertices are relationships)" style="rounded=0;whiteSpace=wrap;html=1;fillColor=#dae8fc;strokeColor=#6c8ebf;" parent="WIyWlLk6GJQsqaUBKTNV-1" vertex="1">
          <mxGeometry x="1280" y="1810" width="160" height="80" as="geometry" />
        </mxCell>
        <mxCell id="u2KNT-bkNQCC0Z62DxVK-58" value="" style="endArrow=classic;html=1;rounded=0;exitX=1;exitY=0.5;exitDx=0;exitDy=0;entryX=0;entryY=0.5;entryDx=0;entryDy=0;" parent="WIyWlLk6GJQsqaUBKTNV-1" source="u2KNT-bkNQCC0Z62DxVK-54" target="u2KNT-bkNQCC0Z62DxVK-55" edge="1">
          <mxGeometry width="50" height="50" relative="1" as="geometry">
            <mxPoint x="1050" y="1740" as="sourcePoint" />
            <mxPoint x="1110" y="1740" as="targetPoint" />
          </mxGeometry>
        </mxCell>
        <mxCell id="u2KNT-bkNQCC0Z62DxVK-59" value="" style="shape=flexArrow;endArrow=classic;html=1;rounded=0;" parent="WIyWlLk6GJQsqaUBKTNV-1" edge="1">
          <mxGeometry width="50" height="50" relative="1" as="geometry">
            <mxPoint x="947.5" y="1890" as="sourcePoint" />
            <mxPoint x="890" y="1930" as="targetPoint" />
          </mxGeometry>
        </mxCell>
        <mxCell id="u2KNT-bkNQCC0Z62DxVK-60" value="&lt;b&gt;Task:&lt;/b&gt; Provide list of character + attributes and character relationships in prompt" style="rounded=0;whiteSpace=wrap;html=1;fillColor=#fff2cc;strokeColor=#d6b656;" parent="WIyWlLk6GJQsqaUBKTNV-1" vertex="1">
          <mxGeometry x="780" y="1940" width="170" height="60" as="geometry" />
        </mxCell>
        <mxCell id="u2KNT-bkNQCC0Z62DxVK-61" value="" style="shape=flexArrow;endArrow=classic;html=1;rounded=0;" parent="WIyWlLk6GJQsqaUBKTNV-1" edge="1">
          <mxGeometry width="50" height="50" relative="1" as="geometry">
            <mxPoint x="957.5" y="1890" as="sourcePoint" />
            <mxPoint x="1010" y="1930" as="targetPoint" />
          </mxGeometry>
        </mxCell>
        <mxCell id="u2KNT-bkNQCC0Z62DxVK-62" value="&lt;b&gt;Task:&lt;/b&gt; Compare list of chars with regenerated list of events (Similarity task)" style="rounded=0;whiteSpace=wrap;html=1;fillColor=#fff2cc;strokeColor=#d6b656;" parent="WIyWlLk6GJQsqaUBKTNV-1" vertex="1">
          <mxGeometry x="980" y="1940" width="160" height="60" as="geometry" />
        </mxCell>
        <mxCell id="u2KNT-bkNQCC0Z62DxVK-63" value="" style="shape=flexArrow;endArrow=classic;html=1;rounded=0;" parent="WIyWlLk6GJQsqaUBKTNV-1" edge="1">
          <mxGeometry width="50" height="50" relative="1" as="geometry">
            <mxPoint x="1225" y="1730" as="sourcePoint" />
            <mxPoint x="1265" y="1730" as="targetPoint" />
          </mxGeometry>
        </mxCell>
        <mxCell id="u2KNT-bkNQCC0Z62DxVK-64" value="&lt;b&gt;Note&lt;/b&gt;: Considered Co-reference resolution to make character identification easier, but GPT-3 kind of already does that.&amp;nbsp;" style="rounded=0;whiteSpace=wrap;html=1;fillColor=#dae8fc;strokeColor=#6c8ebf;" parent="WIyWlLk6GJQsqaUBKTNV-1" vertex="1">
          <mxGeometry x="1275" y="1690" width="245" height="80" as="geometry" />
        </mxCell>
        <mxCell id="u2KNT-bkNQCC0Z62DxVK-65" value="&lt;b&gt;Note&lt;/b&gt;: Cluster similar characters together to ensure there aren&#39;t character duplicates" style="rounded=0;whiteSpace=wrap;html=1;fillColor=#dae8fc;strokeColor=#6c8ebf;" parent="WIyWlLk6GJQsqaUBKTNV-1" vertex="1">
          <mxGeometry x="1280" y="1900" width="180" height="80" as="geometry" />
        </mxCell>
        <mxCell id="u2KNT-bkNQCC0Z62DxVK-66" value="" style="shape=flexArrow;endArrow=classic;html=1;rounded=0;" parent="WIyWlLk6GJQsqaUBKTNV-1" edge="1">
          <mxGeometry width="50" height="50" relative="1" as="geometry">
            <mxPoint x="1230" y="1880" as="sourcePoint" />
            <mxPoint x="1270" y="1930" as="targetPoint" />
          </mxGeometry>
        </mxCell>
        <mxCell id="u2KNT-bkNQCC0Z62DxVK-68" value="Note: Considered Co-reference resolution to make subject/object identification easier, but GPT-3 kind of already does that.&amp;nbsp;" style="rounded=0;whiteSpace=wrap;html=1;fillColor=#dae8fc;strokeColor=#6c8ebf;" parent="WIyWlLk6GJQsqaUBKTNV-1" vertex="1">
          <mxGeometry x="150" y="1680" width="245" height="80" as="geometry" />
        </mxCell>
        <mxCell id="u2KNT-bkNQCC0Z62DxVK-69" value="" style="shape=flexArrow;endArrow=classic;html=1;rounded=0;" parent="WIyWlLk6GJQsqaUBKTNV-1" edge="1">
          <mxGeometry width="50" height="50" relative="1" as="geometry">
            <mxPoint x="440" y="1729.5" as="sourcePoint" />
            <mxPoint x="400" y="1730" as="targetPoint" />
          </mxGeometry>
        </mxCell>
        <mxCell id="u2KNT-bkNQCC0Z62DxVK-73" value="" style="ellipse;whiteSpace=wrap;html=1;fillColor=#d5e8d4;strokeColor=#82b366;" parent="WIyWlLk6GJQsqaUBKTNV-1" vertex="1">
          <mxGeometry x="210" y="1935" width="120" height="80" as="geometry" />
        </mxCell>
        <mxCell id="u2KNT-bkNQCC0Z62DxVK-74" value="&lt;b&gt;Example&lt;/b&gt;: Example queries in repo" style="text;html=1;strokeColor=none;fillColor=none;align=center;verticalAlign=middle;whiteSpace=wrap;rounded=0;" parent="WIyWlLk6GJQsqaUBKTNV-1" vertex="1">
          <mxGeometry x="224.5" y="1960" width="96.5" height="30" as="geometry" />
        </mxCell>
        <mxCell id="u2KNT-bkNQCC0Z62DxVK-75" value="" style="endArrow=classic;html=1;rounded=0;exitX=0;exitY=0.5;exitDx=0;exitDy=0;entryX=1;entryY=0.5;entryDx=0;entryDy=0;" parent="WIyWlLk6GJQsqaUBKTNV-1" source="u2KNT-bkNQCC0Z62DxVK-28" target="u2KNT-bkNQCC0Z62DxVK-73" edge="1">
          <mxGeometry width="50" height="50" relative="1" as="geometry">
            <mxPoint x="620" y="1860" as="sourcePoint" />
            <mxPoint x="650" y="1860" as="targetPoint" />
          </mxGeometry>
        </mxCell>
        <mxCell id="u2KNT-bkNQCC0Z62DxVK-76" value="&lt;div style=&quot;&quot;&gt;&lt;span style=&quot;background-color: initial;&quot;&gt;&lt;b&gt;Evaluation&lt;/b&gt;: Human eval on:&lt;/span&gt;&lt;/div&gt;&lt;ul&gt;&lt;li style=&quot;text-align: left;&quot;&gt;&lt;span style=&quot;background-color: initial;&quot;&gt;Story similarity&amp;nbsp;&lt;/span&gt;&lt;/li&gt;&lt;/ul&gt;" style="rounded=0;whiteSpace=wrap;html=1;align=center;fillColor=#f5f5f5;strokeColor=#666666;fontColor=#333333;" parent="WIyWlLk6GJQsqaUBKTNV-1" vertex="1">
          <mxGeometry x="980" y="840" width="170" height="60" as="geometry" />
        </mxCell>
        <mxCell id="u2KNT-bkNQCC0Z62DxVK-77" value="" style="shape=flexArrow;endArrow=classic;html=1;rounded=0;" parent="WIyWlLk6GJQsqaUBKTNV-1" edge="1">
          <mxGeometry width="50" height="50" relative="1" as="geometry">
            <mxPoint x="910" y="869.5" as="sourcePoint" />
            <mxPoint x="970" y="870" as="targetPoint" />
          </mxGeometry>
        </mxCell>
        <mxCell id="u2KNT-bkNQCC0Z62DxVK-78" value="&lt;b style=&quot;border-color: var(--border-color);&quot;&gt;Task&lt;/b&gt;: Construct their structured representations as lists of events" style="rounded=0;whiteSpace=wrap;html=1;fillColor=#fff2cc;strokeColor=#d6b656;" parent="WIyWlLk6GJQsqaUBKTNV-1" vertex="1">
          <mxGeometry x="435" y="1080" width="177.5" height="60" as="geometry" />
        </mxCell>
        <mxCell id="u2KNT-bkNQCC0Z62DxVK-79" value="" style="shape=flexArrow;endArrow=classic;html=1;rounded=0;" parent="WIyWlLk6GJQsqaUBKTNV-1" edge="1">
          <mxGeometry width="50" height="50" relative="1" as="geometry">
            <mxPoint x="512.5" y="910" as="sourcePoint" />
            <mxPoint x="512.5" y="950" as="targetPoint" />
          </mxGeometry>
        </mxCell>
        <mxCell id="u2KNT-bkNQCC0Z62DxVK-80" value="" style="shape=flexArrow;endArrow=classic;html=1;rounded=0;" parent="WIyWlLk6GJQsqaUBKTNV-1" edge="1">
          <mxGeometry width="50" height="50" relative="1" as="geometry">
            <mxPoint x="512.5" y="1030" as="sourcePoint" />
            <mxPoint x="512.5" y="1070" as="targetPoint" />
          </mxGeometry>
        </mxCell>
        <mxCell id="u2KNT-bkNQCC0Z62DxVK-81" value="&lt;b style=&quot;border-color: var(--border-color);&quot;&gt;Task&lt;/b&gt;: Query GPT-3 for structured repreresentation of events for both stories" style="rounded=0;whiteSpace=wrap;html=1;fillColor=#fff2cc;strokeColor=#d6b656;" parent="WIyWlLk6GJQsqaUBKTNV-1" vertex="1">
          <mxGeometry x="435" y="960" width="175" height="60" as="geometry" />
        </mxCell>
        <mxCell id="u2KNT-bkNQCC0Z62DxVK-82" value="&lt;b&gt;Task: &lt;/b&gt;Compute the weighted similarity of the two lists of events." style="rounded=0;whiteSpace=wrap;html=1;fillColor=#fff2cc;strokeColor=#d6b656;" parent="WIyWlLk6GJQsqaUBKTNV-1" vertex="1">
          <mxGeometry x="430" y="1200" width="185" height="60" as="geometry" />
        </mxCell>
        <mxCell id="u2KNT-bkNQCC0Z62DxVK-84" value="" style="shape=flexArrow;endArrow=classic;html=1;rounded=0;" parent="WIyWlLk6GJQsqaUBKTNV-1" edge="1">
          <mxGeometry width="50" height="50" relative="1" as="geometry">
            <mxPoint x="522" y="1150" as="sourcePoint" />
            <mxPoint x="522" y="1190" as="targetPoint" />
          </mxGeometry>
        </mxCell>
        <mxCell id="u2KNT-bkNQCC0Z62DxVK-85" value="&lt;b style=&quot;border-color: var(--border-color);&quot;&gt;Task&lt;/b&gt;: Query GPT-3 for structured repreresentation of characters" style="rounded=0;whiteSpace=wrap;html=1;fillColor=#fff2cc;strokeColor=#d6b656;" parent="WIyWlLk6GJQsqaUBKTNV-1" vertex="1">
          <mxGeometry x="810" y="960" width="190" height="60" as="geometry" />
        </mxCell>
        <mxCell id="u2KNT-bkNQCC0Z62DxVK-87" value="" style="endArrow=classic;html=1;rounded=0;exitX=1;exitY=0.5;exitDx=0;exitDy=0;entryX=0;entryY=0.5;entryDx=0;entryDy=0;" parent="WIyWlLk6GJQsqaUBKTNV-1" source="u2KNT-bkNQCC0Z62DxVK-85" edge="1">
          <mxGeometry width="50" height="50" relative="1" as="geometry">
            <mxPoint x="610" y="1170" as="sourcePoint" />
            <mxPoint x="1060" y="990" as="targetPoint" />
          </mxGeometry>
        </mxCell>
        <mxCell id="u2KNT-bkNQCC0Z62DxVK-88" value="" style="shape=flexArrow;endArrow=classic;html=1;rounded=0;" parent="WIyWlLk6GJQsqaUBKTNV-1" edge="1">
          <mxGeometry width="50" height="50" relative="1" as="geometry">
            <mxPoint x="910" y="1030" as="sourcePoint" />
            <mxPoint x="910" y="1070" as="targetPoint" />
          </mxGeometry>
        </mxCell>
        <mxCell id="u2KNT-bkNQCC0Z62DxVK-89" value="&lt;b&gt;Task&lt;/b&gt;: Construct structured representation as dict + list" style="rounded=0;whiteSpace=wrap;html=1;fillColor=#fff2cc;strokeColor=#d6b656;" parent="WIyWlLk6GJQsqaUBKTNV-1" vertex="1">
          <mxGeometry x="810.25" y="1077" width="199.75" height="60" as="geometry" />
        </mxCell>
        <mxCell id="u2KNT-bkNQCC0Z62DxVK-93" value="" style="shape=flexArrow;endArrow=classic;html=1;rounded=0;" parent="WIyWlLk6GJQsqaUBKTNV-1" edge="1">
          <mxGeometry width="50" height="50" relative="1" as="geometry">
            <mxPoint x="908.88" y="1150" as="sourcePoint" />
            <mxPoint x="911.38" y="1190" as="targetPoint" />
          </mxGeometry>
        </mxCell>
        <mxCell id="u2KNT-bkNQCC0Z62DxVK-95" value="" style="shape=flexArrow;endArrow=classic;html=1;rounded=0;" parent="WIyWlLk6GJQsqaUBKTNV-1" edge="1">
          <mxGeometry width="50" height="50" relative="1" as="geometry">
            <mxPoint x="580" y="900" as="sourcePoint" />
            <mxPoint x="810" y="950" as="targetPoint" />
          </mxGeometry>
        </mxCell>
        <mxCell id="u2KNT-bkNQCC0Z62DxVK-96" value="&lt;b&gt;Example&lt;/b&gt;: Example queries in repo" style="ellipse;whiteSpace=wrap;html=1;fillColor=#d5e8d4;strokeColor=#82b366;" parent="WIyWlLk6GJQsqaUBKTNV-1" vertex="1">
          <mxGeometry x="1065" y="950" width="110" height="80" as="geometry" />
        </mxCell>
        <mxCell id="u2KNT-bkNQCC0Z62DxVK-97" value="&lt;b&gt;Example&lt;/b&gt;: &lt;br&gt;Dict of char attributes: &lt;br&gt;{I: rich}&lt;br&gt;Dict of char relationships:&lt;br&gt;[Me, Carl, friend]" style="ellipse;whiteSpace=wrap;html=1;aspect=fixed;fillColor=#d5e8d4;strokeColor=#82b366;" parent="WIyWlLk6GJQsqaUBKTNV-1" vertex="1">
          <mxGeometry x="1050" y="1040" width="140" height="140" as="geometry" />
        </mxCell>
        <mxCell id="u2KNT-bkNQCC0Z62DxVK-98" value="" style="endArrow=classic;html=1;rounded=0;exitX=1;exitY=0.5;exitDx=0;exitDy=0;entryX=0;entryY=0.5;entryDx=0;entryDy=0;" parent="WIyWlLk6GJQsqaUBKTNV-1" source="u2KNT-bkNQCC0Z62DxVK-89" target="u2KNT-bkNQCC0Z62DxVK-97" edge="1">
          <mxGeometry width="50" height="50" relative="1" as="geometry">
            <mxPoint x="1015" y="1107" as="sourcePoint" />
            <mxPoint x="1075" y="1000" as="targetPoint" />
          </mxGeometry>
        </mxCell>
        <mxCell id="u2KNT-bkNQCC0Z62DxVK-99" value="&lt;b style=&quot;border-color: var(--border-color);&quot;&gt;Example:&lt;br style=&quot;border-color: var(--border-color);&quot;&gt;&lt;/b&gt;&amp;lt;s, v, o, m&amp;gt;&lt;br style=&quot;border-color: var(--border-color);&quot;&gt;1. &amp;lt;I, am, rich&amp;gt;&lt;br style=&quot;border-color: var(--border-color);&quot;&gt;2. &amp;lt;I went, mall, buy clothes for my girlfriend&amp;gt;" style="ellipse;whiteSpace=wrap;html=1;aspect=fixed;fillColor=#d5e8d4;strokeColor=#82b366;" parent="WIyWlLk6GJQsqaUBKTNV-1" vertex="1">
          <mxGeometry x="644" y="1047.5" width="125" height="125" as="geometry" />
        </mxCell>
        <mxCell id="u2KNT-bkNQCC0Z62DxVK-100" value="&lt;b style=&quot;border-color: var(--border-color);&quot;&gt;Example&lt;/b&gt;: Example queries in repo" style="ellipse;whiteSpace=wrap;html=1;fillColor=#d5e8d4;strokeColor=#82b366;" parent="WIyWlLk6GJQsqaUBKTNV-1" vertex="1">
          <mxGeometry x="649" y="950" width="120" height="80" as="geometry" />
        </mxCell>
        <mxCell id="u2KNT-bkNQCC0Z62DxVK-101" value="" style="endArrow=classic;html=1;rounded=0;exitX=1;exitY=0.5;exitDx=0;exitDy=0;entryX=0;entryY=0.5;entryDx=0;entryDy=0;" parent="WIyWlLk6GJQsqaUBKTNV-1" source="u2KNT-bkNQCC0Z62DxVK-81" target="u2KNT-bkNQCC0Z62DxVK-100" edge="1">
          <mxGeometry width="50" height="50" relative="1" as="geometry">
            <mxPoint x="630" y="990" as="sourcePoint" />
            <mxPoint x="810" y="870" as="targetPoint" />
          </mxGeometry>
        </mxCell>
        <mxCell id="u2KNT-bkNQCC0Z62DxVK-102" value="" style="endArrow=classic;html=1;rounded=0;exitX=1;exitY=0.5;exitDx=0;exitDy=0;" parent="WIyWlLk6GJQsqaUBKTNV-1" edge="1">
          <mxGeometry width="50" height="50" relative="1" as="geometry">
            <mxPoint x="610" y="1110" as="sourcePoint" />
            <mxPoint x="640" y="1110" as="targetPoint" />
          </mxGeometry>
        </mxCell>
        <mxCell id="u2KNT-bkNQCC0Z62DxVK-103" value="" style="shape=flexArrow;endArrow=classic;html=1;rounded=0;" parent="WIyWlLk6GJQsqaUBKTNV-1" edge="1">
          <mxGeometry width="50" height="50" relative="1" as="geometry">
            <mxPoint x="420" y="1229.5" as="sourcePoint" />
            <mxPoint x="340" y="1229.5" as="targetPoint" />
          </mxGeometry>
        </mxCell>
        <mxCell id="u2KNT-bkNQCC0Z62DxVK-104" value="&lt;b&gt;Algorithm 1: Direct Overlap&lt;br&gt;&lt;div style=&quot;text-align: left;&quot;&gt;&lt;b style=&quot;background-color: initial;&quot;&gt;&lt;br&gt;&lt;/b&gt;&lt;/div&gt;&lt;div style=&quot;text-align: left;&quot;&gt;&lt;b style=&quot;background-color: initial;&quot;&gt;For each event &amp;lt;s, v, o, m&amp;gt; e1, e2 with positions p1, p2 in the lists of length (m, n) m &amp;gt; n,&lt;/b&gt;&lt;/div&gt;&lt;div style=&quot;text-align: left;&quot;&gt;&lt;b style=&quot;background-color: initial;&quot;&gt;&amp;nbsp; if e1 == e2,&amp;nbsp;&amp;nbsp;&lt;/b&gt;&lt;br&gt;&lt;/div&gt;&lt;div style=&quot;text-align: left;&quot;&gt;&lt;b style=&quot;background-color: initial;&quot;&gt;&amp;nbsp; add (m - |p1 - p2|)/m &lt;br&gt;&lt;br&gt;&lt;/b&gt;&lt;/div&gt;&lt;div style=&quot;text-align: left;&quot;&gt;&lt;b style=&quot;background-color: initial;&quot;&gt;(penalizing events that are far apart)&lt;/b&gt;&lt;/div&gt;&lt;br&gt;&lt;/b&gt;" style="rounded=0;whiteSpace=wrap;html=1;fillColor=#f8cecc;strokeColor=#b85450;strokeWidth=1;spacingLeft=4;spacingRight=4;" parent="WIyWlLk6GJQsqaUBKTNV-1" vertex="1">
          <mxGeometry x="110" y="1060" width="220" height="160" as="geometry" />
        </mxCell>
        <mxCell id="u2KNT-bkNQCC0Z62DxVK-107" value="&lt;b&gt;Algorithm 2: Semantic Similarity&lt;br&gt;&lt;div style=&quot;text-align: left;&quot;&gt;&lt;b style=&quot;background-color: initial;&quot;&gt;&lt;br&gt;&lt;/b&gt;&lt;/div&gt;&lt;div style=&quot;text-align: left;&quot;&gt;&lt;b style=&quot;background-color: initial;&quot;&gt;For each event &amp;lt;s, v, o, m&amp;gt; e1, e2 with positions p1, p2 in the lists of length (m, n) m &amp;gt; n,&lt;/b&gt;&lt;/div&gt;&lt;div style=&quot;text-align: left;&quot;&gt;&lt;b style=&quot;background-color: initial;&quot;&gt;&lt;br&gt;&lt;/b&gt;&lt;/div&gt;&lt;div style=&quot;text-align: left;&quot;&gt;&lt;b style=&quot;background-color: initial;&quot;&gt;&amp;nbsp; turn&amp;nbsp; &amp;lt;s, v, o, m&amp;gt; into &quot;s, v, o, m m&quot;&lt;/b&gt;&lt;br&gt;&lt;/div&gt;&lt;div style=&quot;text-align: left;&quot;&gt;&lt;b style=&quot;background-color: initial;&quot;&gt;&amp;nbsp; for each e1 in base story:&lt;/b&gt;&lt;/div&gt;&lt;div style=&quot;text-align: left;&quot;&gt;&lt;b style=&quot;background-color: initial;&quot;&gt;&lt;span style=&quot;&quot;&gt;&lt;/span&gt;&amp;nbsp; Add max (ss(e1, e2) *&amp;nbsp;&lt;/b&gt;&lt;b style=&quot;border-color: var(--border-color); background-color: initial;&quot;&gt;(m - |p1 -&amp;nbsp; &amp;nbsp; &amp;nbsp; &amp;nbsp; &amp;nbsp; &amp;nbsp; p2|)/m&lt;/b&gt;&lt;b style=&quot;background-color: initial;&quot;&gt;&lt;br&gt;&lt;br&gt;&lt;/b&gt;&lt;/div&gt;&lt;div style=&quot;text-align: left;&quot;&gt;&lt;b style=&quot;background-color: initial;&quot;&gt;(penalizing events that are far apart)&lt;/b&gt;&lt;/div&gt;&lt;br&gt;&lt;/b&gt;" style="rounded=0;whiteSpace=wrap;html=1;fillColor=#f8cecc;strokeColor=#b85450;strokeWidth=1;spacingLeft=4;spacingRight=4;" parent="WIyWlLk6GJQsqaUBKTNV-1" vertex="1">
          <mxGeometry x="110" y="1230" width="220" height="200" as="geometry" />
        </mxCell>
        <mxCell id="u2KNT-bkNQCC0Z62DxVK-108" value="&lt;b&gt;Algorithm 1: Direct Overlap&lt;br&gt;&lt;div style=&quot;text-align: left;&quot;&gt;&lt;b style=&quot;background-color: initial;&quot;&gt;&lt;br&gt;&lt;/b&gt;&lt;/div&gt;&lt;/b&gt;&lt;span style=&quot;border-color: var(--border-color);&quot;&gt;&lt;div style=&quot;border-color: var(--border-color); text-align: left;&quot;&gt;&lt;span style=&quot;border-color: var(--border-color); background-color: initial;&quot;&gt;For each matching character (computed by similarity)&amp;nbsp;&lt;/span&gt;&lt;/div&gt;&lt;/span&gt;&lt;div style=&quot;text-align: left;&quot;&gt;&lt;span style=&quot;background-color: initial;&quot;&gt;&amp;nbsp;o = # overlapping attributes&lt;/span&gt;&lt;/div&gt;&lt;div style=&quot;text-align: left;&quot;&gt;&lt;span style=&quot;background-color: initial;&quot;&gt;&amp;nbsp;t = (len(a1) + len(a2) / 2 (reconsider this)&lt;/span&gt;&lt;/div&gt;&lt;div style=&quot;text-align: left;&quot;&gt;&lt;span style=&quot;background-color: initial;&quot;&gt;&amp;nbsp;add o / t&lt;/span&gt;&lt;/div&gt;&lt;div style=&quot;text-align: left;&quot;&gt;&lt;span style=&quot;background-color: initial;&quot;&gt;&lt;br&gt;&lt;/span&gt;&lt;/div&gt;&lt;div style=&quot;text-align: left;&quot;&gt;&lt;span style=&quot;background-color: initial;&quot;&gt;For each pair of characters(c1, c2) in the base story with a relationship,&lt;/span&gt;&lt;/div&gt;&lt;div style=&quot;text-align: left;&quot;&gt;&lt;br&gt;&lt;/div&gt;&lt;div style=&quot;text-align: left;&quot;&gt;add 1 if the relationships are identical&lt;/div&gt;" style="rounded=0;whiteSpace=wrap;html=1;fillColor=#f8cecc;strokeColor=#b85450;strokeWidth=1;spacingLeft=4;spacingRight=4;" parent="WIyWlLk6GJQsqaUBKTNV-1" vertex="1">
          <mxGeometry x="1230" y="1030" width="230" height="210" as="geometry" />
        </mxCell>
        <mxCell id="u2KNT-bkNQCC0Z62DxVK-109" value="&lt;b&gt;Algorithm 2: Semantic Similarity&lt;/b&gt;&lt;br&gt;&lt;div style=&quot;font-weight: bold; text-align: left;&quot;&gt;&lt;b style=&quot;background-color: initial;&quot;&gt;&lt;br&gt;&lt;/b&gt;&lt;/div&gt;&lt;div style=&quot;text-align: left;&quot;&gt;&lt;span style=&quot;background-color: initial;&quot;&gt;For each matching character (computed by similarity)&amp;nbsp;&lt;/span&gt;&lt;/div&gt;&lt;div style=&quot;text-align: left;&quot;&gt;&lt;span style=&quot;background-color: initial;&quot;&gt;&lt;br&gt;&lt;/span&gt;&lt;/div&gt;&lt;div style=&quot;text-align: left;&quot;&gt;&lt;span style=&quot;background-color: initial;&quot;&gt;&amp;nbsp; turn attribute list into &quot;a1, a2, a3&quot;&lt;/span&gt;&lt;/div&gt;&lt;div style=&quot;text-align: left;&quot;&gt;&lt;span style=&quot;background-color: initial;&quot;&gt;&lt;span style=&quot;&quot;&gt;&lt;/span&gt;&amp;nbsp; Add ss (c1, c2)&lt;/span&gt;&lt;/div&gt;&lt;div style=&quot;text-align: left;&quot;&gt;&lt;span style=&quot;background-color: initial;&quot;&gt;&lt;br&gt;&lt;/span&gt;&lt;/div&gt;&lt;div style=&quot;text-align: left;&quot;&gt;&lt;span style=&quot;background-color: initial;&quot;&gt;For each pair of characters (c1, c2) in the base story with a relationship,&lt;/span&gt;&lt;/div&gt;&lt;div style=&quot;text-align: left;&quot;&gt;&lt;span style=&quot;background-color: initial;&quot;&gt;&lt;br&gt;&lt;/span&gt;&lt;/div&gt;&lt;div style=&quot;text-align: left;&quot;&gt;&lt;span style=&quot;background-color: initial;&quot;&gt;&amp;nbsp; add ss r(c1, c2) of the second story.&lt;/span&gt;&lt;/div&gt;" style="rounded=0;whiteSpace=wrap;html=1;fillColor=#f8cecc;strokeColor=#b85450;strokeWidth=1;spacingLeft=4;spacingRight=4;" parent="WIyWlLk6GJQsqaUBKTNV-1" vertex="1">
          <mxGeometry x="1230" y="1250" width="230" height="200" as="geometry" />
        </mxCell>
        <mxCell id="u2KNT-bkNQCC0Z62DxVK-110" value="&lt;b&gt;Task: &lt;/b&gt;Compute the weighted similarity of the two character representations." style="rounded=0;whiteSpace=wrap;html=1;fillColor=#fff2cc;strokeColor=#d6b656;" parent="WIyWlLk6GJQsqaUBKTNV-1" vertex="1">
          <mxGeometry x="810.25" y="1200" width="199.75" height="60" as="geometry" />
        </mxCell>
        <mxCell id="u2KNT-bkNQCC0Z62DxVK-114" value="" style="shape=flexArrow;endArrow=classic;html=1;rounded=0;" parent="WIyWlLk6GJQsqaUBKTNV-1" edge="1">
          <mxGeometry width="50" height="50" relative="1" as="geometry">
            <mxPoint x="707.19" y="1260" as="sourcePoint" />
            <mxPoint x="705.81" y="1300" as="targetPoint" />
          </mxGeometry>
        </mxCell>
        <mxCell id="u2KNT-bkNQCC0Z62DxVK-115" value="&lt;b&gt;Task&lt;/b&gt;: Validate that this works on naive examples of WritingPrompts/ ROCStories" style="rounded=0;whiteSpace=wrap;html=1;fillColor=#fff2cc;strokeColor=#d6b656;" parent="WIyWlLk6GJQsqaUBKTNV-1" vertex="1">
          <mxGeometry x="629" y="1310" width="170" height="60" as="geometry" />
        </mxCell>
        <mxCell id="u2KNT-bkNQCC0Z62DxVK-117" value="" style="shape=flexArrow;endArrow=classic;startArrow=classic;html=1;rounded=0;startWidth=28;startSize=5.67;" parent="WIyWlLk6GJQsqaUBKTNV-1" edge="1">
          <mxGeometry width="100" height="100" relative="1" as="geometry">
            <mxPoint x="630" y="1230" as="sourcePoint" />
            <mxPoint x="790" y="1230" as="targetPoint" />
            <Array as="points">
              <mxPoint x="710" y="1230" />
            </Array>
          </mxGeometry>
        </mxCell>
        <mxCell id="u2KNT-bkNQCC0Z62DxVK-118" value="Task: Combine the two" style="rounded=0;whiteSpace=wrap;html=1;fillColor=#fff2cc;strokeColor=#d6b656;" parent="WIyWlLk6GJQsqaUBKTNV-1" vertex="1">
          <mxGeometry x="655.25" y="1210" width="107.5" height="40" as="geometry" />
        </mxCell>
        <mxCell id="u2KNT-bkNQCC0Z62DxVK-120" value="&lt;b&gt;Note&lt;/b&gt;: Rocstories is easy to work with, but the stories are less realistic/interesting.&lt;br&gt;&lt;br&gt;WritingPrompts has interesting stories, but they are very long and potentially challenging to validate." style="rounded=0;whiteSpace=wrap;html=1;fillColor=#dae8fc;strokeColor=#6c8ebf;" parent="WIyWlLk6GJQsqaUBKTNV-1" vertex="1">
          <mxGeometry x="385" y="1290" width="170" height="140" as="geometry" />
        </mxCell>
        <mxCell id="u2KNT-bkNQCC0Z62DxVK-121" value="" style="shape=flexArrow;endArrow=classic;html=1;rounded=0;" parent="WIyWlLk6GJQsqaUBKTNV-1" edge="1">
          <mxGeometry width="50" height="50" relative="1" as="geometry">
            <mxPoint x="620" y="1350" as="sourcePoint" />
            <mxPoint x="570" y="1350" as="targetPoint" />
          </mxGeometry>
        </mxCell>
        <mxCell id="u2KNT-bkNQCC0Z62DxVK-122" value="" style="shape=flexArrow;endArrow=classic;html=1;rounded=0;" parent="WIyWlLk6GJQsqaUBKTNV-1" edge="1">
          <mxGeometry width="50" height="50" relative="1" as="geometry">
            <mxPoint x="1020" y="1220" as="sourcePoint" />
            <mxPoint x="1220" y="1220" as="targetPoint" />
          </mxGeometry>
        </mxCell>
        <mxCell id="u2KNT-bkNQCC0Z62DxVK-123" value="" style="shape=flexArrow;endArrow=classic;startArrow=classic;html=1;rounded=0;" parent="WIyWlLk6GJQsqaUBKTNV-1" edge="1">
          <mxGeometry width="100" height="100" relative="1" as="geometry">
            <mxPoint x="410" y="2010" as="sourcePoint" />
            <mxPoint x="880" y="2010" as="targetPoint" />
            <Array as="points">
              <mxPoint x="590" y="2060" />
            </Array>
          </mxGeometry>
        </mxCell>
        <mxCell id="u2KNT-bkNQCC0Z62DxVK-124" value="&lt;b&gt;Task&lt;/b&gt;: Combine these two prompt additions" style="rounded=0;whiteSpace=wrap;html=1;fillColor=#fff2cc;strokeColor=#d6b656;" parent="WIyWlLk6GJQsqaUBKTNV-1" vertex="1">
          <mxGeometry x="540" y="2040" width="120" height="30" as="geometry" />
        </mxCell>
        <mxCell id="u2KNT-bkNQCC0Z62DxVK-125" value="" style="shape=flexArrow;endArrow=classic;startArrow=classic;html=1;rounded=0;" parent="WIyWlLk6GJQsqaUBKTNV-1" edge="1">
          <mxGeometry width="100" height="100" relative="1" as="geometry">
            <mxPoint x="615" y="2010" as="sourcePoint" />
            <mxPoint x="1085" y="2010" as="targetPoint" />
            <Array as="points">
              <mxPoint x="795" y="2060" />
            </Array>
          </mxGeometry>
        </mxCell>
        <mxCell id="u2KNT-bkNQCC0Z62DxVK-126" value="&lt;b&gt;Task&lt;/b&gt;: Combine these two similarity tasks" style="rounded=0;whiteSpace=wrap;html=1;fillColor=#fff2cc;strokeColor=#d6b656;" parent="WIyWlLk6GJQsqaUBKTNV-1" vertex="1">
          <mxGeometry x="757.5" y="2040" width="120" height="30" as="geometry" />
        </mxCell>
        <mxCell id="u2KNT-bkNQCC0Z62DxVK-127" value="" style="shape=flexArrow;endArrow=classic;html=1;rounded=0;" parent="WIyWlLk6GJQsqaUBKTNV-1" edge="1">
          <mxGeometry width="50" height="50" relative="1" as="geometry">
            <mxPoint x="820.69" y="2080" as="sourcePoint" />
            <mxPoint x="819.31" y="2120" as="targetPoint" />
          </mxGeometry>
        </mxCell>
        <mxCell id="u2KNT-bkNQCC0Z62DxVK-128" value="&lt;b&gt;Task&lt;/b&gt;: Validate that this works on real GPT-3 generations" style="rounded=0;whiteSpace=wrap;html=1;fillColor=#fff2cc;strokeColor=#d6b656;" parent="WIyWlLk6GJQsqaUBKTNV-1" vertex="1">
          <mxGeometry x="742.5" y="2130" width="170" height="60" as="geometry" />
        </mxCell>
        <mxCell id="u2KNT-bkNQCC0Z62DxVK-129" value="&lt;b&gt;Task&lt;/b&gt;: Validate that this creates better GPT-3 generations" style="rounded=0;whiteSpace=wrap;html=1;fillColor=#fff2cc;strokeColor=#d6b656;" parent="WIyWlLk6GJQsqaUBKTNV-1" vertex="1">
          <mxGeometry x="530" y="2130" width="170" height="60" as="geometry" />
        </mxCell>
        <mxCell id="u2KNT-bkNQCC0Z62DxVK-130" value="" style="shape=flexArrow;endArrow=classic;html=1;rounded=0;" parent="WIyWlLk6GJQsqaUBKTNV-1" edge="1">
          <mxGeometry width="50" height="50" relative="1" as="geometry">
            <mxPoint x="600.69" y="2080" as="sourcePoint" />
            <mxPoint x="599.31" y="2120" as="targetPoint" />
          </mxGeometry>
        </mxCell>
        <mxCell id="u2KNT-bkNQCC0Z62DxVK-132" value="" style="shape=flexArrow;endArrow=classic;html=1;rounded=0;" parent="WIyWlLk6GJQsqaUBKTNV-1" edge="1">
          <mxGeometry width="50" height="50" relative="1" as="geometry">
            <mxPoint x="1470" y="1330" as="sourcePoint" />
            <mxPoint x="1530" y="1330.5" as="targetPoint" />
          </mxGeometry>
        </mxCell>
        <mxCell id="u2KNT-bkNQCC0Z62DxVK-133" value="&lt;b&gt;Note&lt;/b&gt;: This is a complicated process with many intricacies.&lt;br&gt;&lt;br&gt;Ideally, we separate attributes into categories (like age, gender),&amp;nbsp; reward synonyms and penalize antonyms. However, there is no antonym detector.&lt;br&gt;&lt;br&gt;Semantic similarity is a one-size-fits-all that captures the &quot;vibe&quot; of the character, which may be enough." style="rounded=0;whiteSpace=wrap;html=1;fillColor=#dae8fc;strokeColor=#6c8ebf;" parent="WIyWlLk6GJQsqaUBKTNV-1" vertex="1">
          <mxGeometry x="1540" y="1260" width="220" height="180" as="geometry" />
        </mxCell>
        <mxCell id="u2KNT-bkNQCC0Z62DxVK-134" value="" style="shape=flexArrow;endArrow=classic;html=1;rounded=0;width=11;endSize=7.32;" parent="WIyWlLk6GJQsqaUBKTNV-1" edge="1">
          <mxGeometry width="50" height="50" relative="1" as="geometry">
            <mxPoint x="1480" y="1090" as="sourcePoint" />
            <mxPoint x="1540" y="1090.5" as="targetPoint" />
          </mxGeometry>
        </mxCell>
        <mxCell id="u2KNT-bkNQCC0Z62DxVK-135" value="&lt;b&gt;Note&lt;/b&gt;: This does not compute if two stories are similar to each other. I will need to add more adjustments to do that&lt;br&gt;&lt;br&gt;This computes whether story B or story C are more similar to story A." style="rounded=0;whiteSpace=wrap;html=1;fillColor=#dae8fc;strokeColor=#6c8ebf;" parent="WIyWlLk6GJQsqaUBKTNV-1" vertex="1">
          <mxGeometry x="1540" y="1055" width="220" height="110" as="geometry" />
        </mxCell>
      </root>
    </mxGraphModel>
  </diagram>
</mxfile>
